<svg width="92" height="92" viewBox="0 0 92 92" fill="none" xmlns="http://www.w3.org/2000/svg">
<rect width="92" height="92" fill="#none"/>
<path id="Image" fill-rule="evenodd" clip-rule="evenodd" d="M32.2 32.2C32.2 29.6595 30.1405 27.6 27.6 27.6C25.0595 27.6 23 29.6595 23 32.2V78.2C23 80.7405 25.0595 82.8 27.6 82.8C30.1405 82.8 32.2 80.7405 32.2 78.2V32.2ZM69 32.2C69 29.6595 66.9406 27.6 64.4 27.6C61.8594 27.6 59.8 29.6595 59.8 32.2V78.2C59.8 80.7405 61.8594 82.8 64.4 82.8C66.9406 82.8 69 80.7405 69 78.2V32.2ZM23 18.4V13.8C23 6.17849 29.1785 0 36.8 0H55.2C62.8217 0 69 6.17849 69 13.8V18.4H69.3027C73.3806 18.3998 76.894 18.3996 79.7079 18.7778C82.7232 19.1832 85.6138 20.0975 87.958 22.4419C90.3026 24.7864 91.2166 27.6768 91.6223 30.6922C92.0004 33.5058 92.0004 37.0194 92 41.0973V69.3027C92.0004 73.3805 92.0004 76.894 91.6223 79.7078C91.2166 82.7232 90.3026 85.6138 87.958 87.9579C85.6138 90.3026 82.7232 91.2166 79.7079 91.6223C76.894 92.0004 73.3806 92.0004 69.3027 92H22.6972C18.6194 92.0004 15.1058 92.0004 12.2922 91.6223C9.27683 91.2166 6.38642 90.3026 4.04194 87.9579C1.6975 85.6138 0.783299 82.7232 0.377901 79.7078C-0.000402849 76.894 -0.000218743 73.3805 1.12569e-05 69.3027V41.0973C-0.000218743 37.0194 -0.000402849 33.5058 0.377901 30.6922C0.783299 27.6768 1.6975 24.7864 4.04194 22.4419C6.38642 20.0975 9.27683 19.1832 12.2922 18.7778C15.1058 18.3996 18.6194 18.3998 22.6972 18.4H23ZM32.2 13.8C32.2 11.2595 34.2595 9.2 36.8 9.2H55.2C57.7406 9.2 59.8 11.2595 59.8 13.8V18.4H32.2V13.8Z" fill="#7ED790"/>
</svg>
